# xmcd CD database file
#
# Track frame offsets:
#	150
#	21064
#	38348
#	54559
#	74995
#	88537
#	108285
#	125766
#	151298
#	170727
#	187927
#	204503
#	224072
#	245388
#	263054
#	279745
#	297732
#	314147
#	328130
#	345885
#
# Disc length: 4766 seconds
#
# Revision: 0
# Processed by: cddbd v1.4PL0 Copyright (c) Steve Scherf et al.
# Submitted via: Feurio! 1.65 - http://www.feurio.com
#
DISCID=3b129c14
DTITLE=Udo Lindenberg - Balladen
DYEAR=2001
DGENRE=
TTITLE0=Ich schwöre
TTITLE1=Ich liebe Dich überhaupt nicht mehr
TTITLE2=Gegen die Strömung
TTITLE3=Du und ich und dann ganz lange gar nichts
TTITLE4=Cello
TTITLE5=Jamaika
TTITLE6=Leinwand
TTITLE7=Lililiputaner
TTITLE8=Na und?!
TTITLE9=Ich träume oft davon, ein Segelboot zu klau'n
TTITLE10=Sandmännchen
TTITLE11=Flipper
TTITLE12=Lolita
TTITLE13=Nina
TTITLE14=Piratenfreunde
TTITLE15=No Future
TTITLE16=Und trotzdem lieb ich Dich so sehr
TTITLE17=Mädchen aus Ost-Berlin (Wir wollen doch einfach nur zusammen sein)
TTITLE18=Horizont
TTITLE19=Bis ans Ende der Welt
EXTD=
EXTT0=1996
EXTT1=1990
EXTT2=1981
EXTT3=1997
EXTT4=1973
EXTT5=1980
EXTT6=1980
EXTT7=1976
EXTT8=1978
EXTT9=1976
EXTT10=1981
EXTT11=1977
EXTT12=1991
EXTT13=1976
EXTT14=1993
EXTT15=1981
EXTT16=2000
EXTT17=1973
EXTT18=1986
EXTT19=1978
PLAYORDER=
